<svg width="173" height="40" viewBox="0 0 173 40" fill="none" xmlns="http://www.w3.org/2000/svg">
<path d="M28.832 21.384C31.04 21.8 32.832 22.616 34.208 23.832C35.616 25.048 36.32 26.872 36.32 29.304C36.32 32.856 35.04 35.368 32.48 36.84C29.952 38.28 26.4 39 21.824 39H11.12V5.73602H20.528C25.2 5.73602 28.768 6.40802 31.232 7.75202C33.696 9.06402 34.928 11.224 34.928 14.232C34.928 16.184 34.336 17.768 33.152 18.984C32 20.168 30.56 20.968 28.832 21.384ZM18.992 11.304V19.032H21.92C25.248 19.032 26.912 17.688 26.912 15C26.912 13.656 26.464 12.712 25.568 12.168C24.672 11.592 23.248 11.304 21.296 11.304H18.992ZM21.872 33.288C23.952 33.288 25.52 32.984 26.576 32.376C27.664 31.736 28.208 30.568 28.208 28.872C28.208 25.8 26.288 24.264 22.448 24.264H18.992V33.288H21.872Z" fill="#0C0E13"/>
<path d="M40.745 39V5.73602H60.569L59.753 11.352H48.617V20.184H58.313V25.8H48.617V39H40.745Z" fill="#0C0E13"/>
<path d="M76.1281 12.792C77.0561 12.792 77.9041 12.904 78.6721 13.128L77.4721 20.472C76.5121 20.248 75.7441 20.136 75.1681 20.136C73.6641 20.136 72.5121 20.664 71.7121 21.72C70.9441 22.744 70.3361 24.296 69.8881 26.376V39H62.3041V13.512H68.9281L69.5521 18.456C70.1281 16.696 70.9921 15.32 72.1441 14.328C73.3281 13.304 74.6561 12.792 76.1281 12.792Z" fill="#0C0E13"/>
<path d="M89.1537 13.512V39H81.5697V13.512H89.1537ZM85.3138 0.0720215C86.6258 0.0720215 87.6978 0.488022 88.5298 1.32002C89.3938 2.12002 89.8258 3.14402 89.8258 4.39202C89.8258 5.64002 89.3938 6.68002 88.5298 7.51202C87.6978 8.31202 86.6258 8.71202 85.3138 8.71202C84.0018 8.71202 82.9297 8.31202 82.0977 7.51202C81.2657 6.68002 80.8497 5.64002 80.8497 4.39202C80.8497 3.14402 81.2657 2.12002 82.0977 1.32002C82.9297 0.488022 84.0018 0.0720215 85.3138 0.0720215Z" fill="#0C0E13"/>
<path d="M117.341 25.752C117.341 26.808 117.293 27.72 117.197 28.488H101.405C101.661 30.632 102.269 32.136 103.229 33C104.189 33.864 105.517 34.296 107.213 34.296C108.237 34.296 109.229 34.12 110.189 33.768C111.149 33.384 112.189 32.808 113.309 32.04L116.429 36.264C113.453 38.632 110.141 39.816 106.493 39.816C102.365 39.816 99.1966 38.6 96.9886 36.168C94.7806 33.736 93.6766 30.472 93.6766 26.376C93.6766 23.784 94.1406 21.464 95.0686 19.416C95.9966 17.336 97.3566 15.704 99.1486 14.52C100.941 13.304 103.085 12.696 105.581 12.696C109.261 12.696 112.141 13.848 114.221 16.152C116.301 18.456 117.341 21.656 117.341 25.752ZM109.901 23.592C109.837 19.688 108.461 17.736 105.773 17.736C104.461 17.736 103.437 18.216 102.701 19.176C101.997 20.136 101.565 21.72 101.405 23.928H109.901V23.592Z" fill="#0C0E13"/>
<path d="M136.529 12.696C138.737 12.696 140.465 13.368 141.713 14.712C142.961 16.056 143.585 17.944 143.585 20.376V39H136.001V21.672C136.001 20.392 135.793 19.512 135.377 19.032C134.993 18.52 134.401 18.264 133.601 18.264C132.065 18.264 130.593 19.368 129.185 21.576V39H121.601V13.512H128.225L128.753 16.536C129.841 15.256 131.009 14.296 132.257 13.656C133.537 13.016 134.961 12.696 136.529 12.696Z" fill="#0C0E13"/>
<path d="M172.152 3.38402V39H165.432L165.048 36.024C163.256 38.552 160.84 39.816 157.8 39.816C154.632 39.816 152.216 38.6 150.552 36.168C148.92 33.736 148.104 30.408 148.104 26.184C148.104 23.592 148.536 21.272 149.4 19.224C150.264 17.176 151.48 15.576 153.048 14.424C154.648 13.272 156.472 12.696 158.52 12.696C160.952 12.696 162.968 13.496 164.568 15.096V2.56802L172.152 3.38402ZM160.152 34.248C161.912 34.248 163.384 33.288 164.568 31.368V20.376C163.96 19.64 163.336 19.096 162.696 18.744C162.088 18.392 161.384 18.216 160.584 18.216C159.176 18.216 158.056 18.872 157.224 20.184C156.392 21.496 155.976 23.512 155.976 26.232C155.976 29.208 156.328 31.288 157.032 32.472C157.768 33.656 158.808 34.248 160.152 34.248Z" fill="#0C0E13"/>
<path d="M0 32C0 30.3432 1.34315 29 3 29H7C8.65685 29 10 30.3432 10 32V36C10 37.6569 8.65685 39 7 39H3C1.34315 39 0 37.6569 0 36V32Z" fill="url(#paint0_linear_402_56)"/>
<defs>
<linearGradient id="paint0_linear_402_56" x1="3" y1="29" x2="3" y2="39" gradientUnits="userSpaceOnUse">
<stop stop-color="#968D6C"/>
<stop offset="0.0001" stop-color="#D5D0BE"/>
<stop offset="1" stop-color="#E2B102"/>
</linearGradient>
</defs>
</svg>
